<svg width="393.9706" height="393.9706" viewBox="0 -40 393.9706 353.9706" xmlns="http://www.w3.org/2000/svg" xmlns:xlink="http://www.w3.org/1999/xlink"><g fill="#6527e4" fill-rule="nonzero" stroke="none" stroke-width="1" stroke-linecap="butt" stroke-linejoin="miter" stroke-miterlimit="10" stroke-dasharray="" stroke-dashoffset="0" font-family="none" font-weight="none" font-size="none" text-anchor="none" style="mix-blend-mode: normal"><g><g id="svg_1"><path d="M76.7005,1.3705c-0.9,1 -1.5,2.2 -1.1,2.7c0.3,0.5 -0.7,4.4 -2.1,8.6c-2.4,6.9 -5.4804,15.3285 -2,29.4v0l-2.5,-0.7c-18.9,-4.9 -48.4,-5.7 -66.8,-1.8c-4.4,0.9 -2,3.5 5.4,5.8c11.8,3.8 17.1,7.3 31.6,21.3c10,9.6 15.8,14.3 21.2,17.3l7.5,4.1l-2.7,5.2c-3.4,6.4 -3.7,14.8 -0.8,19.2c0.5582,0.8537 2.1388,1.3472 2.4736,2.7319c0.6849,2.8325 -0.1751,7.8694 0.0264,16.6681c0.1,1.7 0.7142,1.8061 1.9736,1.6879c1,-0.0939 1.4428,-0.2688 2.4134,-0.6939c1,-0.438 2.423,-1.2744 3.913,-2.394c1.6403,-1.2326 2.9,-2.5 3.2,-2.5c0.2,0 0.7,2.8 1.1,6.2c1.2,12 7.1,29.7 11.5,34.8c1.2,1.4 3,3.5 4.1,4.8c1.9,2.2 1.9,2.5 0.3,7.8c-1,3.7 -1.4,7.1 -0.9,10l0.6,4.4h-11.1c-10.1,0 -11.1,-0.2 -10.7,-1.8c0.3,-0.9 1.1,-4.6 1.7,-8.2c0.7,-3.6 2.6,-9.4 4.2,-13c3.2,-7.1 3.1,-11 -0.3,-11c-1.5,0 -2.8,1.8 -5.4,7.2c-1.9,4 -3.5,8.1 -3.5,9.1c0,1.8 -0.6,1.9 -5.7,1.4c-3.2,-0.3 -7,-0.9 -8.5,-1.3c-2.4,-0.5 -2.8,-0.3 -2.8,1.4c0,2.1 4.5,4.4 11.3,5.6c1.725,0.3234 3.0105,0.5958 3.2431,0.8319c0.3306,0.3357 -0.11,2.0058 -0.25,3.6857c-0.15,1.8 0.1718,3.9654 -0.0639,4.2582c-0.3556,0.4418 -1.7674,1.2401 -2.3556,2.5981c-2.1477,4.9588 -1.0736,3.6261 -10.0736,0.8261c-6,-1.9 -7.1,-0.8 -7.6,8c-0.6,8.7 0.9,9.1 12.9,4c1.5,-0.6 1.7,0.5 2.1,8.6c0.4,10.6 3.2,18 8.8,23.3c3.9,3.7 4.8,2.7 2.2,-2.8c-4.6,-9.7 -6.2,-21.3 -4.6,-32.9l0.6,-4.6l34,0.6c34,0.5 34,0.5 36.6,2.9c3.4,3.1 8.6,3.1 13.4,-0.2c5.6,-3.8 14.4,-3.6 21,0.5c6.9,4.2 10.3,3.9 16.8,-1.6c2,-1.7 4.8,-2.4 14.8,-3.3c6.8,-0.7 12.7,-1 13,-0.6c0.3,0.3 -0.2,3.8 -1.1,7.8c-2.3,9.7 -3.7,19.1 -3.7,25.4c0,2.9 -0.1,5.3 -0.2,5.3c-0.2,0 -21.4,0.5 -47.3,1c-73.2,1.5 -89.3234,2.3796 -89.3234,4.6796c0,0.8 1.2234,1.3204 1.6234,1.3204c1,0 3.3,4.8 7.3,15.3c1.7,4.5 3.7,8.8 4.4,9.6c2.9,3.1 11.2,-9.1 13,-19.2l0.7,-3.7l7.2,-0.1c3.9,-0.1 28.8,-0.3 55.3,-0.5l48.3,-0.3l1.5,5.2c0.8,2.9 1.9,5.9 2.5,6.7c0.8,1.3 0.9,1.3 1.4,0c0.2,-0.8 0.7,-10.1 0.9,-20.5c0.7,-24.3 3.1,-35.5 10.6,-49.4c2.8,-5.2 4.8,-9.8 4.5,-10.2c-1.8,-2.9 -6.5,1.6 -11.5,10.9l-3.4,6.3l-4.4,-0.5c-2.4,-0.3 -7.5,-0.6 -11.3,-0.6h-6.9l0.7,-4.5c0.5,-3.5 0.3,-4.5 -0.8,-4.5c-1.1,0 -9.7,8.7 -13.2,13.5c-0.6,0.9 -2.5,1.8 -4.2,2.1c-2.7,0.4 -3.7,-0.3 -9.2,-6c-3.4,-3.5 -6.2,-6.9 -6.2,-7.4c0,-0.5 -0.8,-1.3 -1.7,-1.6c-1.2,-0.5 -3.8,1.5 -9.5,7.4c-4.3,4.4 -8.2,8 -8.6,8c-1.6,0 -8,-7.6 -8.9,-10.5c-0.7,-2.3 -1.7,-3.1 -3.8,-3.3c-2.7,-0.4 -2.8,-0.3 -2.2,3.7l0.5,4.1h-14.4c-13.8,0 -14.4,-0.1 -15.5,-2.2c-1.8,-3.3 0.7,-17 4.1,-23.3c1.5,-2.8 3.1,-6.2 3.4,-7.8c0.8,-3.4 1.9,-3.4 3.6,-0.2c0.7,1.4 1.9,2.5 2.5,2.5c0.7,0 3.9,-1.8 7.3,-3.9l6,-3.9l4.3,3.9c2.3,2.1 4,4 3.8,4.2c-0.2,0.2 -5.3,0.9 -11.3,1.5c-6,0.7 -11.2,1.4 -11.5,1.7c-0.3,0.3 -0.1,1.3 0.5,2.2c0.7,1.1 2.8,1.7 6.5,1.9c7.4,0.4 25.5,-1.3 28,-2.7c2.1,-1.1 2,-1.2 -1.2,-4.6c-3.6,-3.8 -12.5,-10.7 -14.7,-11.4c-0.9,-0.3 3.1736,-3.874 6.6736,-8.174c3.2,-3.654 3.4079,-4.294 6,-8.494c1.8564,-3.4396 3.4024,-5.3147 3.6024,-5.3647c0.2187,-0.0547 0.4492,0.3825 0.524,0.8328c0.526,3.1672 7.1,15.9 12,21.5c5.8,6.5 12.1,10.8 20.3,13.8c6.5,2.4 5.6,2.8 13.5,-4.5c4.3,-3.8 9.5,-14.8 9.6,-20c0.1,-3.3 -0.3,-4.1 -1.9,-4.3c-1.6,-0.2 -2.9,1.5 -6.7,9.5c-2.6,5.4 -6,11.2 -7.5,13l-2.8,3.2l-5.5,-3.5c-18.8,-11.8 -27.9,-29.1 -28.1,-53.3c0,-7.9 -0.4,-10.1 -1.4,-10.1c-2.6,0 -4.1911,3.6553 -4.4911,13.6553c-0.2,8.4 -0.139,10.1319 -1.6264,13.1319c-3.509,6.4447 -5.9629,12.1469 -13.509,20.4447c-6.4973,7 -14.2736,13.7681 -15.9736,13.7681c-1.6,0 -3.1,-8.6 -2.6,-14.8c0.4,-5.5 0.3,-6.2 -1.4,-6.2c-2.2,0 -3.9,2.9 -3.9,6.6c0,2.3 -6.7,26.1 -7.8,27.4c-0.6,0.8 -4.2,-4.3 -6.7,-9.5c-7.7,-16.4 -10.5,-36.4 -7,-49.5c1.9,-7.2 1.9,-8 -0.5,-8c-1.5,0 -2.7,1.3 -4,4.2c-1.1,2.4 -2,4.9 -2,5.7c0,0.8 -1.7,3.6 -3.7,6.3l-3.8,4.9l-0.3,-3.5c-0.4,-4.8 4.1,-19.4 8,-25.9c3.7,-6.2 11.5,-14.5 18.3,-19.6c5.8,-4.3 22.1,-14.1 23.5,-14.1c0.6,0 1,-0.7 1,-1.5c0,-1 1,-1.5 2.7,-1.5c4,0 1.5,-1.9 -3.3,-2.6c-5.7,-0.8 -26.7,-6.1 -35.5,-9c-8.6,-2.8 -9.7,-4.2 -10.6,-12.9c-0.5,-4.3 1.7,-22.5 3.3,-27.8c0.9,-2.9 10.5,-2.1 32.9,2.8c10,2.2 29.9,8.9 44.6,15.2c7,2.9 13.0675,5.3843 13.883,6.1998c1.2021,1.2021 0.6796,1.3591 -0.583,1.5002c-1.5264,0.1526 -2.5264,0.3526 -4.4,0.6c-8.3277,1.0996 -39.7,12.7 -42,17.1c-1.6,2.8 0.5,2.5 9.4,-1.6c8.2,-3.8 21.8,-7.7 33.4,-9.4c9.4,-1.4 48.7,-1.5 58.3,-0.1c14.9,2.2 29.1,6.1 37.7,10.2c2.3,1.2 4.5,1.8 4.9,1.5c1.4,-1.5 -1.4,-7.2 -4.4,-9c-12.8,-7.4 -36.7,-11.2 -67.1,-10.5l-15.3,0.3l-3.7,-3.1c-6.9,-5.7 -22.8,-12.8 -45,-20c-11.4,-3.8 -30.7,-7.4 -42.7,-8.1c-9.7,-0.5 -11.3,-0.4 -12.8,1.1zM51.0005,44.3705c10.4,1.7 15.5,3 24,6.1c17.6,6.4 23.5,7.8 34.3,8.3c5.9,0.2 10.7,0.7 10.7,1.1c0,0.3 -1.9,1.2 -4.2,1.9c-11.9,3.5 -30.6,15.3 -35.6,22.4c-1.9,2.6 -3.4,2.3 -12.5,-2.4c-9.2,-4.8 -16.1,-10.2 -29.7,-23.3c-7.8,-7.5 -10.8,-9.7 -16.8,-12.1c-3.9,-1.7 -6.9,-3.4 -6.5,-3.9c1.1,-1.1 26.2,0.2 36.3,1.9zM73.5005,94.1705c-1.3,2.4 -2.9,6.3 -3.6,8.8c-1.3,4.4 -1.3,4.4 -1.7,1.4c-0.4,-3.9 4.1,-14.4 6.2,-14.4c1.2,0 1,0.9 -0.9,4.2zM98.0005,247.2705c0,1.9 -3.8,11.9 -5,13.1c-0.7,0.7 -1,0.6 -1,-0.2c0,-0.9 -3.3,-8.7 -5.8,-13.5c-0.2,-0.4 2.4,-0.7 5.7,-0.7c4.3,0 6.1,0.4 6.1,1.3z" id="svg_2"></path><path d="M269.1005,24.0705c-13.3,1 -24.3735,3.6277 -23.6735,5.6277c0.2,0.5 3.2445,0.5042 4.0945,0.5042c1.05,0 10.679,-0.6319 23.679,-1.2319c35.2,-1.6 55.9,0.3 68.5,6.2c5.1,2.4 7.3,5.1 7.3,9.2c0,3.4 -5,11.8 -9.7,16.2l-3.2,3.1l-17.8,0.7l-17.8,0.7l-3,-3.1c-4,-4.2 -16.6,-10.1 -23.2,-10.7c-7.5,-0.8 -7,1.5 1.1,5c8,3.5 16.9,9.1 16,10c-0.4,0.4 -2.7,0.7 -5.2,0.7c-5.6,0 -28.8,4.7 -32.4,6.6c-3.1,1.6 -3.5,2.6 -1.5,4.2c0.8,0.6 4.4,0.4 11.2,-0.8c24.3,-4.4 35.4,-5.3 65.2,-5.4c16,0 29.4,0.2 29.8,0.6c0.3,0.3 0.3,2.2 0,4.2c-0.7,3.5 -0.9,3.6 -9.4,6.2c-4.7,1.5 -13.5,4.6 -19.6,7c-23.4,9.1 -26.2,9.8 -37.5,10c-13.2,0.3 -12.5,0.1 -11,1.8c0.6,0.8 3.6,2 6.5,2.7c7,1.6 15.6,0.2 29.7,-4.7c5.6,-1.9 11.1,-3.8 12.2,-4.1c1.6,-0.5 1.7,-0.2 1.1,2.8c-2.2,10 -6.3,19.2 -12.6,28.1c-2.6,3.6 -2.4,4.1 1.2,2.2c3.9,-2 9.2,-7.5 12.4,-12.9c2.7,-4.6 5.5,-14.6 5.5,-19.8v-3.6l9.8,-3c5.3,-1.6 13.3,-4 17.7,-5.2c15.7,-4.3 19.9,-5.7 20.2,-6.6c0.2,-0.5 -2.8,-0.8 -7.2,-0.7c-7.3,0.2 -8.8,-0.3 -6.2,-2.4c1.4,-1.1 16.3,1 19.7,2.8c2.5,1.3 3.5,0.8 2.7,-1.5c-0.9,-2.2 -9.6,-7.5 -12.4,-7.5c-3.2,0 -2.9,-1 1.7,-5.5c4.8,-4.7 4.9,-7 0.1,-10.2c-4.5,-3.1 -6,-2.9 -11.2,1.2l-4.4,3.5l-0.7,-2.6c-1.4,-5.5 -4.4,-6.7 -9.8,-3.9l-2.8,1.5l1,-3.7c1.2,-4.4 0.5,-9.6 -1.7,-13c-2.1,-3.2 -12.2,-7.9 -21.1,-9.9c-8.7,-1.9 -44.4,-2.6 -63.3,-1.3zM355.3005,60.8705l0.5,4.3l-5.6,-0.7c-3.1,-0.4 -5.8,-0.8 -6,-1c-0.2,-0.2 1.8,-2.5 4.5,-5.1c5.3,-5.4 5.6,-5.3 6.6,2.5zM362.2005,58.5705c0.4,5.6 -0.7,6.8 -1.6,1.6c-0.8,-5.1 -0.8,-6.2 0.3,-6.2c0.5,0 1.1,2.1 1.3,4.6zM379.4005,55.6705c1,1 -8.5,10.3 -10.6,10.3c-1,0 -1.8,-0.2 -1.8,-0.4c0,-0.7 10.4,-10.6 11.1,-10.6c0.3,0 0.9,0.3 1.3,0.7z" id="svg_3"></path><path d="M250.6005,81.8705c-0.4,0.5 1,2.2 3,3.8c12.2,9.2 18.4,17.2 24,30.4c3.4,8 6.9,23.2 5.3,22.7c-0.5,-0.2 -3.1,-3.5 -5.8,-7.3c-7.8,-11.3 -12.3,-9.6 -6.2,2.4c4.5,8.9 6.1,17.1 6.1,31.3c0,11.8 -2.1,30.5 -3.6,33c-0.4,0.7 -0.9,7.1 -1,14.2c-0.1,10.4 -0.7,15.3 -2.8,23.5c-2.8,11 -7.7,21.5 -10.8,23.2c-4.3,2.3 -15.4,2.3 -25.3,-0.1c-7.3,-1.8 -9.8,-2.1 -10.7,-1.2c-3.2,3.2 12.5,8.6 25,8.6c4.5,0 7.9,0.3 7.5,0.7c-2.6,2.3 -6.7993,7.1126 -15.8662,6.596c-8.1443,-0.464 -10.3338,-2.596 -14.7338,-6.296c-3.8264,-3.4933 -4.7264,-3.5433 -5.8264,-1.7433c-0.4,0.6 0.7264,3.4433 3.5264,6.0433l4.7,4.5l-2.4,1.9c-3.8,2.9 -6.7,10.1 -6.7,16.6c0,10.6 4.2,16.2 7,9.3l1.3,-3l3.7,4c3.8,4.1 7.9,6.3 14.1,7.4c3.4,0.6 3.8,0.4 6.3,-3.4c1.4,-2.2 3.1,-6 3.8,-8.5c1.1,-4.3 2.9,-5.7 4.3,-3.5c1,1.6 5.2,1.2 5.9,-0.6c1,-2.7 0.7,-13.2 -0.6,-16.1c-1.7,-4.1 -3.8,-6.3 -6,-6.3c-2.2,0 -2.2,0.6 -0.5,5.6c0.8,2.2 1.7,5.2 2.1,6.9l0.7,3l-2.1,-2.3c-1.2,-1.3 -2.9,-2.1 -3.7,-1.8c-0.8,0.3 -1.7,0.6 -1.9,0.6c-0.2,0 -0.4,1.2 -0.4,2.7c0,5.2 -6.1,19.3 -8.3,19.3c-2.4,0 -9.3,-6.7 -11.8,-11.4c-1.3,-2.5 -2.7,-4.6 -3.1,-4.6c-0.5,0 -0.8,-0.9 -0.8,-2c0,-2.2 -1.5,-2.7 -2.3,-0.8c-0.3,0.8 -0.6,0.8 -0.6,0.2c-0.1,-0.6 1,-2.6 2.4,-4.5c1.4,-1.9 2.8,-4.2 3.1,-5.2c0.5,-1.2 1.2,-1.6 2.3,-1.1c4.2,2 11,1.6 16.3,-0.9c7.4,-3.5 14.6,-10.8 16.3,-16.7c0.4,-1.4 1.5,-3.4 2.5,-4.5c2.9,-3.2 9.1,-14.6 10.6,-19.5c1.9,-6 1.8,-20.9 -0.2,-28.6c-1.4,-5.6 -1.4,-6.5 0,-8.6c3.4,-5.3 4.9,-14.8 5,-33c0,-9.8 0.4,-17.8 0.7,-17.8c0.3,0 1.4,0.9 2.4,2c3.6,3.9 4.1,2.6 3.4,-9.3c-1.6,-26 -10.6,-43.4 -29,-55.8c-6.1,-4.2 -9.4,-5.4 -10.3,-4z" id="svg_4"></path><path d="M302.6005,110.8705c-2.9,4.7 0.2,46.9 5.4,73.1c0.5,2.5 1.6,9.7 2.5,16c0.9,6.3 2,14.3 2.5,17.6c0.6,3.4 1.6749,12.218 1.8697,19.8155c0.1359,5.3007 1.0039,20.8164 -7.3114,27.8164c-2.8,2.7 -7.6847,3.6683 -12.6087,3.7733c-7.3683,-0.1049 -13.4496,-1.7052 -21.1496,-6.7052c-5.3,-3.4 -4.2,0 1.7,5.5c8.8,8.2 15.8,11.2 26.4,11.2c8,0 12.8931,-1.2963 17.3783,-6.3251c3.3978,-4.3492 8.5954,-10.4429 8.1548,-33.4349c-0.1877,-9.7991 -2.3331,-20.24 -4.3331,-28.74c-4.9,-21.4 -5.2,-22.5 -8.9,-41c-3.2,-15.9 -6.8,-39.1 -8,-51.4c-0.6,-6.8 -2.1,-9.7 -3.6,-7.2z" id="svg_5"></path><path d="M57.4005,122.6705c-2.8,6.6 -6.4,22.5 -7.6,33.3c-1.1,10.5 -0.5,22 1.3,22c0.5,0 0.9,-0.4 0.9,-0.9c0,-3.2 7.2,-43 8.9,-49.1c1.1,-4 2.2736,-8.3681 1.9736,-8.7681c-1.2,-2 -3.9736,-0.0319 -5.4736,3.4681z" id="svg_6"></path><path d="M326.0005,126.8705c0,1.1 0.9,4.4 2.1,7.3c2.7,6.9 3.6,20.3 2,30.5c-1.8,11.2 -4,19.5 -5.8,21.6c-2.8,3 -0.4,3.2 2.7,0.2c5.1,-4.9 9.3,-15.7 10.4,-27c1.5,-14.4 -3.6,-33.5 -9.1,-34.3c-1.8,-0.3 -2.3,0.2 -2.3,1.7z" id="svg_7"></path><path d="M200.6005,126.8705c-0.9,1.4 7.3,13 13.9,19.7c3.3,3.4 7.9,7.1 10.3,8.3l4.2,2.1v6.6c0,4.8 0.3,6.5 1.3,6.2c2.5,-0.9 4.2,-6.2 3.9,-12.7c-0.2,-6.8 -1.2,-8.4 -4.7,-7.5c-1.5,0.4 -4.7,-2.3 -13.9,-11.6c-11.3,-11.4 -13.7,-13.2 -15,-11.1z" id="svg_8"></path><path d="M216.5005,161.4705c-0.5,0.2 -6.2,1.5 -12.5,3c-6.3,1.5 -12.1,3.2 -12.7,3.7c-0.7,0.6 -1.3,2.1 -1.3,3.5c0,2.7 2.7,4.1 16.5,8.6c9.1,3 15.6,3.8 16.2,2c0.6,-1.6 -6,-5.5 -13.2,-7.8c-3.3,-1.1 -6.3,-2.2 -6.7,-2.5c-0.5,-0.3 4,-1.6 9.9,-2.8c10.9,-2.2 14,-3.8 13,-6.6c-0.6,-1.5 -6.1,-2.1 -9.2,-1.1z" id="svg_9"></path><path d="M116.2005,205.6705c-2,0.8 -9.7,12.4 -11.6,17.5c-2.2,5.9 -1.8,9.2 1,9.6c1.8,0.3 2.3,-0.4 3.1,-3.5l0.9,-3.8l5.2,0.3c5,0.4 5.2,0.3 5.2,-2.2c0,-2.1 -0.6,-2.6 -3.5,-3.2c-1.9,-0.3 -3.5,-0.9 -3.5,-1.3c0,-0.4 1.3,-2.2 3,-4.1c2.5,-2.9 3.1,-3.3 4,-2c1.3,1.9 2.8736,7.2319 3,10.5c0.0425,1.0992 0.5,3.7 1.1,5.7c0.8,3 1.5,3.8 3.3,3.8c3.1,0 3.6,-2.1 2.4,-10.1c-1.9,-12 -7.8,-19.6 -13.6,-17.2z" id="svg_10"></path><path d="M155.5005,207.7705c-7.6,2.8 -11.5,7.5 -11.5,13.9c0,3.5 0.4736,5.4319 3.8736,8.5319c3.7,3.3 4.6264,2.7681 10.0264,2.7681c4.8,0 6.5,-0.5 8.7,-2.3c3.8,-3.3 2.4,-5.1 -3,-4.2c-6.4,1 -8.8,0.7 -11.3,-1.7c-2.4264,-2.5681 -2.4264,-4.5681 0,-7.5c3.6,-3.4 6.5,-4.4 10.1,-3.8c4.2,0.8 5.6,-0.9 3,-3.6c-2.2,-2.1 -6.9,-3.1 -9.9,-2.1z" id="svg_11"></path><path d="M188.2005,208.7705c-4.7,2.5 -7.0646,6.8017 -7.2,12.3c-0.1264,5.1319 0.3262,6.1319 3.4588,9.1319c4.4148,3 5.0412,2.8681 10.6412,2.6681c1.9252,-0.11 4.0556,-0.8712 5.3514,-0.6681c1.06,0.1662 1.4336,1.2531 1.7486,1.5681c3.2,3.2 6.8,-0.6 6.8,-7c0,-4.4 -0.1,-4.6 -4,-6.2c-8.3,-3.3 -14,-0.7 -6.7,3l3.2,1.7l-3,1.3c-4.6264,1.1868 -5.6264,0.6319 -8.6,-1.5c-1.5667,-1.3139 -3.0264,-5.8681 0.1,-9.1c2.8736,-2.7681 4.8736,-3.299 9.1,-2.7c5,0.6 5.7976,1.2319 6.2976,-0.0681c1.8,-4.7 -10.3976,-8.0319 -17.1976,-4.4319z" id="svg_12"></path><path d="M135.0005,218.4705c-2.5,3 1.5,7 4.5,4.5c1.9,-1.6 1.4116,-3.1361 0.3736,-4.7681c-1.4141,-1.4916 -3,-1.4916 -4.8736,0.2681z" id="svg_13"></path><path d="M172.1005,218.8705c-0.8,1.4 -0.7264,3.0319 0.7736,4.3319c3.3,2.9 7.9264,-1.4319 5.1264,-4.7319c-1.7,-2.1 -4.7,-1.9 -5.9,0.4z" id="svg_14"></path></g></g></g></svg>